<svg width="129" height="32" viewBox="0 0 129 32" fill="none" xmlns="http://www.w3.org/2000/svg">
<path d="M51.7463 19.7607H43.8347L42.7356 23.5254H35.6211L44.0956 0.723145H51.695L60.1675 23.5275H52.8722L51.7463 19.7607ZM50.3 14.8304L47.8101 6.63199L45.3468 14.8304H50.3Z" fill="#0C3050"/>
<path d="M62.3535 0.723145H73.9364C76.4593 0.723145 78.3494 1.32982 79.6046 2.54317C80.8599 3.75652 81.4885 5.48305 81.4885 7.72275C81.4885 10.0248 80.8044 11.824 79.4361 13.1205C78.0679 14.4169 75.9765 15.0652 73.1681 15.0652H69.355V23.5275H62.3556V0.723145H62.3535ZM69.353 10.4445H71.0602C72.4038 10.4445 73.3468 10.2097 73.8912 9.736C74.4357 9.26437 74.7068 8.65978 74.7068 7.92429C74.7068 7.2075 74.4706 6.6029 74.0001 6.10426C73.5276 5.60563 72.6401 5.35839 71.3396 5.35839H69.3571V10.4445H69.353Z" fill="#0C3050"/>
<path d="M85.1191 0.723145H103.792V5.59108H92.1022V9.21451H102.946V13.8664H92.1022V18.3624H104.129V23.5275H85.1191V0.723145Z" fill="#0C3050"/>
<path d="M122.894 14.1925L129 16.0603C128.589 17.7931 127.944 19.2392 127.062 20.4006C126.181 21.562 125.086 22.4387 123.779 23.0288C122.473 23.6188 120.809 23.9159 118.787 23.9159C116.336 23.9159 114.335 23.5565 112.78 22.8356C111.227 22.1146 109.885 20.8493 108.757 19.0355C107.629 17.2218 107.066 14.901 107.066 12.0713C107.066 8.29824 108.059 5.39991 110.043 3.3742C112.028 1.34641 114.834 0.33252 118.464 0.33252C121.306 0.33252 123.537 0.914262 125.162 2.07567C126.787 3.23708 127.995 5.02178 128.784 7.42562L122.633 8.80934C122.417 8.1154 122.191 7.60638 121.955 7.28434C121.565 6.74623 121.088 6.3307 120.525 6.03983C119.96 5.74896 119.329 5.6056 118.633 5.6056C117.055 5.6056 115.845 6.24759 115.003 7.53158C114.368 8.48523 114.049 9.98114 114.049 12.0214C114.049 14.5499 114.429 16.2806 115.188 17.2176C115.946 18.1546 117.014 18.6242 118.386 18.6242C119.72 18.6242 120.726 18.246 121.408 17.4877C122.09 16.7335 122.586 15.6344 122.894 14.1925Z" fill="#0C3050"/>
<path d="M38.0422 30.2217V29.2577H40.2281V31.2335C39.809 31.5223 39.4392 31.7176 39.1167 31.8236C38.7941 31.9275 38.4141 31.9794 37.9724 31.9794C37.43 31.9794 36.9862 31.8859 36.6431 31.6989C36.3 31.5119 36.035 31.2335 35.846 30.8616C35.657 30.4918 35.5625 30.0659 35.5625 29.586C35.5625 29.0811 35.6652 28.6406 35.8707 28.2667C36.0761 27.8927 36.3781 27.608 36.7767 27.4148C37.0869 27.2652 37.5039 27.1904 38.0299 27.1904C38.5373 27.1904 38.9153 27.2361 39.166 27.3296C39.4166 27.421 39.6262 27.5665 39.7905 27.7618C39.9569 27.9571 40.0802 28.2043 40.1644 28.5035L38.8003 28.7507C38.7448 28.5762 38.6483 28.4433 38.5147 28.3498C38.3812 28.2563 38.2086 28.2106 38.0011 28.2106C37.6909 28.2106 37.4444 28.3186 37.2595 28.5368C37.0746 28.7549 36.9821 29.0998 36.9821 29.5714C36.9821 30.0721 37.0746 30.4316 37.2615 30.6456C37.4485 30.8596 37.7073 30.9676 38.0401 30.9676C38.1983 30.9676 38.3504 30.9447 38.4921 30.899C38.6359 30.8533 38.8003 30.7744 38.9852 30.6622V30.2259H38.0422V30.2217Z" fill="#0C3050"/>
<path d="M58.1562 31.8982V27.2671H60.5147C60.9523 27.2671 61.2872 27.3045 61.5173 27.3814C61.7474 27.4562 61.9344 27.5974 62.0761 27.8031C62.2179 28.0088 62.2877 28.2581 62.2877 28.5532C62.2877 28.8108 62.2343 29.031 62.1254 29.218C62.0165 29.405 61.8666 29.5546 61.6776 29.6709C61.5563 29.7436 61.392 29.806 61.1804 29.8538C61.3488 29.9099 61.4721 29.968 61.5481 30.0241C61.5995 30.0615 61.6755 30.1426 61.7741 30.2672C61.8727 30.3919 61.9385 30.4874 61.9734 30.556L62.6575 31.8982H61.0592L60.3031 30.4833C60.2066 30.3005 60.1223 30.182 60.0463 30.1259C59.9436 30.0553 59.8286 30.0179 59.6991 30.0179H59.5779V31.8982H58.1562ZM59.5779 29.1432H60.1737C60.2394 29.1432 60.3627 29.1224 60.5497 29.0809C60.6442 29.0622 60.7202 29.0123 60.7798 28.9354C60.8393 28.8565 60.8681 28.7672 60.8681 28.6674C60.8681 28.5178 60.8209 28.4036 60.7263 28.3225C60.6318 28.2436 60.4572 28.202 60.1984 28.202H59.5779V29.1432Z" fill="#0C3050"/>
<path d="M80.0059 29.5856C80.0059 28.8293 80.2134 28.2393 80.6304 27.8196C81.0475 27.3978 81.6268 27.188 82.3705 27.188C83.1327 27.188 83.7203 27.3958 84.1332 27.8071C84.5462 28.2206 84.7516 28.8002 84.7516 29.5461C84.7516 30.0884 84.6612 30.5309 84.4804 30.8779C84.3017 31.2249 84.0408 31.495 83.6997 31.6861C83.3587 31.8793 82.9334 31.9749 82.426 31.9749C81.9103 31.9749 81.483 31.8918 81.144 31.7256C80.805 31.5594 80.5318 31.2955 80.3222 30.9361C80.1127 30.5766 80.0059 30.1258 80.0059 29.5856ZM81.4214 29.5918C81.4214 30.0593 81.5076 30.3959 81.6802 30.5995C81.8507 30.8031 82.087 30.907 82.3808 30.907C82.6848 30.907 82.9211 30.8073 83.0855 30.6057C83.2519 30.4063 83.3361 30.0468 83.3361 29.5295C83.3361 29.0932 83.2498 28.7753 83.0752 28.5738C82.9026 28.3722 82.6664 28.2725 82.3685 28.2725C82.0829 28.2725 81.8548 28.3743 81.6802 28.58C81.5076 28.7815 81.4214 29.1202 81.4214 29.5918Z" fill="#0C3050"/>
<path d="M105.565 27.2671H106.976V30.0262C106.976 30.3005 106.933 30.5581 106.849 30.8012C106.765 31.0443 106.633 31.2562 106.452 31.439C106.272 31.6218 106.083 31.7486 105.885 31.8234C105.61 31.9273 105.281 31.9792 104.895 31.9792C104.671 31.9792 104.429 31.9626 104.166 31.9314C103.903 31.9003 103.683 31.8379 103.504 31.7423C103.328 31.6489 103.165 31.5159 103.019 31.3434C102.872 31.171 102.771 30.9923 102.717 30.8095C102.629 30.5145 102.586 30.2527 102.586 30.0262V27.2671H103.997V30.0927C103.997 30.3462 104.067 30.5415 104.205 30.6848C104.342 30.8261 104.536 30.8967 104.782 30.8967C105.027 30.8967 105.216 30.8261 105.355 30.6869C105.493 30.5477 105.563 30.3482 105.563 30.0927V27.2671H105.565Z" fill="#0C3050"/>
<path d="M124.979 27.2671H127.331C127.844 27.2671 128.227 27.3897 128.483 27.6369C128.738 27.8821 128.868 28.2332 128.868 28.6882C128.868 29.1557 128.728 29.5213 128.451 29.7852C128.173 30.0491 127.748 30.18 127.177 30.18H126.402V31.8982H124.981V27.2671H124.979ZM126.4 29.2409H126.747C127.021 29.2409 127.212 29.1931 127.323 29.0975C127.434 29.0019 127.487 28.8793 127.487 28.7298C127.487 28.5843 127.44 28.4617 127.343 28.3599C127.249 28.2581 127.068 28.2083 126.803 28.2083H126.4V29.2409Z" fill="#0C3050"/>
<path d="M0 0V31.5762L14.3934 3.18089L15.7123 0.538112L31.7657 32H31.7821V0H0Z" fill="#0C3050"/>
<path d="M13.3227 6.60889L0.441406 31.9999H26.2924L13.3227 6.60889Z" fill="#0C3050"/>
</svg>
